<?xml version="1.0" encoding="iso-8859-1"?>
<!-- Generator: Adobe Illustrator 19.0.0, SVG Export Plug-In . SVG Version: 6.00 Build 0)  -->
<svg version="1.1" id="Layer_1" xmlns="http://www.w3.org/2000/svg" xmlns:xlink="http://www.w3.org/1999/xlink" x="0px" y="0px"
	 viewBox="0 0 503.467 503.467" style="enable-background:new 0 0 503.467 503.467;" xml:space="preserve">
<g transform="translate(4 1)">
	<path style="fill:#FFD0A1;" d="M466.705,155.16l-56.32,157.867h-0.853c0-9.387-2.56-20.48-9.387-27.307
		c-5.973-5.973-16.213-14.507-30.72-23.04l1.707-3.413l57.173-120.32c4.267-10.24,14.507-16.213,28.16-11.947
		C470.118,131.267,470.971,141.507,466.705,155.16z M281.531,241.347v0.853c-18.773,0.853-35.84,3.413-51.2,6.827v-0.853V28.867
		c0-14.507,11.093-25.6,25.6-25.6c14.507,0,25.6,11.093,25.6,25.6V241.347z M178.278,84.333L208.998,255
		c-29.867,9.387-46.933,21.333-46.933,21.333L127.931,92.867c-2.56-13.653,6.827-27.307,20.48-29.867
		C162.918,61.293,175.718,70.68,178.278,84.333z M362.598,45.933c13.653,2.56,23.04,15.36,20.48,29.867l-30.72,174.08l-1.707,3.413
		c-13.653-5.12-30.72-9.387-49.493-11.093v-2.56l31.573-173.227C335.291,52.76,348.945,44.227,362.598,45.933z"/>
	<path style="fill:#FFD0A1;" d="M208.998,255c6.827-2.56,13.653-4.267,21.333-5.973c15.36-3.413,32.427-5.973,51.2-6.827
		c2.56,0,5.973,0,8.533,0c4.267,0,7.68,0,11.093,0c18.773,0.853,35.84,5.12,49.493,11.093c6.827,2.56,12.8,5.973,18.773,8.533
		c14.507,7.68,25.6,17.067,30.72,23.04c6.827,6.827,9.387,17.92,9.387,27.307c0,2.56,0,5.12-0.853,6.827
		c0,0-25.6,119.467-34.133,145.067c-8.533,25.6-17.067,34.133-34.133,34.133H195.345c-17.067,0-34.133-25.6-34.133-25.6
		L30.652,263.533c-5.973-9.387-9.387-16.213-0.853-24.747c17.92-17.92,45.227-8.533,63.147,11.947l68.267,76.8v-51.2l0,0
		C162.065,276.333,179.131,264.387,208.998,255"/>
</g>
<path style="fill:#51565F;" d="M345.265,503.467H200.198c-18.773,0-36.693-26.453-37.547-27.307L32.091,267.093
	c-5.12-8.533-11.093-18.773,0-29.867c7.68-7.68,16.213-11.093,26.453-11.093c14.507,0,29.867,8.533,42.667,23.04l68.267,76.8
	c1.707,1.707,1.707,4.267,0,5.973c-1.707,1.707-4.267,1.707-5.973,0l-68.267-76.8C84.145,243.2,70.491,235.52,58.545,235.52
	c-7.68,0-14.507,2.56-20.48,8.533c-5.973,5.973-5.12,9.387,1.707,19.627l130.56,209.067c4.267,6.827,18.773,23.893,30.72,23.893
	h145.067c13.653,0,21.333-4.267,29.867-31.573c8.533-24.747,34.133-143.36,34.133-144.213c1.707-9.387,0-23.04-7.68-29.867
	c-9.387-9.387-46.08-41.813-107.52-41.813c-73.387,0-123.733,32.427-125.44,33.28l-0.853,0.853c0,0,0,0-0.853,0
	c-2.56,0.853-4.267-0.853-5.12-3.413L128.518,96.427c-1.707-7.68,0-16.213,5.12-22.187c5.12-5.973,11.093-11.093,19.627-11.947
	c16.213-2.56,31.573,7.68,34.987,23.893l23.893,136.533c0,2.56-0.853,4.267-3.413,5.12c-2.56,0-4.267-0.853-5.12-3.413
	L179.718,87.893c-0.853-5.973-4.267-10.24-8.533-13.653c-4.267-3.413-10.24-4.267-16.213-3.413
	c-5.973,0.853-10.24,4.267-13.653,8.533s-4.267,10.24-3.413,16.213l32.427,177.493c15.36-8.533,61.44-31.573,124.587-31.573
	c64.853,0,103.253,33.28,114.347,43.52c9.387,9.387,11.947,26.453,9.387,38.4c-0.853,5.12-25.6,120.32-34.133,145.92
	C375.131,489.813,366.598,503.467,345.265,503.467z M302.598,435.2c-1.707,0-3.413-0.853-4.267-3.413
	c-21.333-73.387-79.36-81.92-81.92-81.92s-4.267-2.56-3.413-5.12c0-2.56,2.56-4.267,5.12-3.413c0.853,0,65.707,9.387,88.747,88.747
	c0.853,2.56-0.853,4.267-2.56,5.12C303.451,435.2,302.598,435.2,302.598,435.2z M370.865,332.8c-61.44,0-95.573-51.2-97.28-52.907
	c-1.707-1.707-0.853-4.267,0.853-5.973c1.707-1.707,4.267-0.853,5.973,0.853c0,0.853,33.28,49.493,90.453,49.493
	c2.56,0,4.267,1.707,4.267,4.267C375.131,331.093,373.425,332.8,370.865,332.8z M432.305,268.8c-0.853,0-0.853,0-1.707,0
	c-2.56-0.853-3.413-3.413-2.56-5.12l38.4-108.373c2.56-6.827,3.413-12.8,1.707-16.213c-1.707-2.56-4.267-5.12-8.533-6.827
	c-11.947-4.267-19.627,2.56-22.187,9.387l-42.667,93.013c-0.853,2.56-3.413,3.413-5.973,1.707c-2.56-0.853-3.413-3.413-1.707-5.973
	l42.667-92.16c5.12-13.653,18.773-18.773,33.28-13.653c6.827,2.56,11.093,5.973,12.8,11.093c2.56,5.973,2.56,13.653-0.853,23.04
	l-38.4,108.373C435.718,267.093,434.011,268.8,432.305,268.8z M362.331,224.427C361.478,224.427,361.478,224.427,362.331,224.427
	c-3.413-0.853-4.267-2.56-4.267-5.12l25.6-143.36c1.707-11.947-5.973-23.04-17.067-24.747c-11.093-1.707-23.04,5.973-24.747,17.067
	l-24.747,142.507c0,2.56-2.56,4.267-5.12,3.413c-2.56,0-4.267-2.56-3.413-5.12L333.318,66.56
	c2.56-16.213,18.773-27.307,34.987-23.893c16.213,2.56,27.307,18.773,23.893,34.987l-25.6,143.36
	C365.745,222.72,364.038,224.427,362.331,224.427z M234.331,221.867c-2.56,0-4.267-1.707-4.267-4.267V29.867
	C230.065,13.653,243.718,0,259.931,0s29.867,13.653,29.867,29.867v181.76c0,2.56-1.707,4.267-4.267,4.267s-4.267-1.707-4.267-4.267
	V29.867c0-11.947-9.387-21.333-21.333-21.333c-11.947,0-21.333,9.387-21.333,21.333V217.6
	C238.598,220.16,236.891,221.867,234.331,221.867z"/>
<g>
</g>
<g>
</g>
<g>
</g>
<g>
</g>
<g>
</g>
<g>
</g>
<g>
</g>
<g>
</g>
<g>
</g>
<g>
</g>
<g>
</g>
<g>
</g>
<g>
</g>
<g>
</g>
<g>
</g>
</svg>
